# xmcd CD database file
#
# Track frame offsets:
#	150
#	17660
#	36030
#	54453
#	73373
#	90307
#	109333
#	123853
#	140040
#	158006
#	176660
#	191762
#	208212
#	224348
#	242291
#
# Disc length: 3497 seconds
#
# Revision: 0
# Processed by: cddbd v1.5.2PL0 Copyright (c) Steve Scherf et al.
# Submitted via: CDex 1.51
#
DISCID=d70da70f
DTITLE=Rick and Renner - Coisa de Deus
DYEAR=2007
DGENRE=Country
TTITLE0=Coisa de Deus
TTITLE1=Quando
TTITLE2=Credencial
TTITLE3=Nunca Amei Assim
TTITLE4=Faz Amor Que Passa
TTITLE5=Tudo Errado
TTITLE6=Vive Maria
TTITLE7=Fiquei Fã
TTITLE8=Onde Eh Que Esta Meu Amor
TTITLE9=Meu Anjo Mau
TTITLE10=Galera de Balada
TTITLE11=Pneuzinho
TTITLE12=Na Cara do Meu Coracao
TTITLE13=Vai, Vai Muuuu
TTITLE14=Te Amo Pai
EXTD=YEAR: 2007
EXTT0=
EXTT1=
EXTT2=
EXTT3=
EXTT4=
EXTT5=
EXTT6=
EXTT7=
EXTT8=
EXTT9=
EXTT10=
EXTT11=
EXTT12=
EXTT13=
EXTT14=
PLAYORDER=
